{
  "accessors": [
    {
      "bufferView": 2,
      "componentType": 5126,
      "count": 332,
      "max": [
        50.0,
        100.0,
        50.0
      ],
      "min": [
        -50.0,
        -100.0,
        -49.99999237060547
      ],
      "type": "VEC3"
    },
    {
      "bufferView": 2,
      "byteOffset": 3984,
      "componentType": 5126,
      "count": 332,
      "max": [
        1.0,
        1.0,
        1.0
      ],
      "min": [
        -1.0,
        -1.0,
        -1.0
      ],
      "type": "VEC3"
    },
    {
      "bufferView": 1,
      "componentType": 5126,
      "count": 332,
      "max": [
        0.8003625273704529,
        0.9998943209648132
      ],
      "min": [
        0.00015561282634735107,
        0.00010579824447631836
      ],
      "type": "VEC2"
    },
    {
      "bufferView": 0,
      "componentType": 5125,
      "count": 960,
      "type": "SCALAR"
    },
    {
      "bufferView": 2,
      "byteOffset": 7968,
      "componentType": 5126,
      "count": 4,
      "max": [
        0.5,
        0.5,
        0.0
      ],
      "min": [
        -0.5,
        -0.5,
        0.0
      ],
      "type": "VEC3"
    },
    {
      "bufferView": 2,
      "byteOffset": 8016,
      "componentType": 5126,
      "count": 4,
      "max": [
        0.0,
        0.0,
        1.0
      ],
      "min": [
        0.0,
        0.0,
        1.0
      ],
      "type": "VEC3"
    },
    {
      "bufferView": 1,
      "byteOffset": 2656,
      "componentType": 5126,
      "count": 4,
      "max": [
        1.0,
        1.0
      ],
      "min": [
        0.0,
        0.0
      ],
      "type": "VEC2"
    },
    {
      "bufferView": 0,
      "byteOffset": 3840,
      "componentType": 5125,
      "count": 6,
      "type": "SCALAR"
    },
    {
      "bufferView": 2,
      "byteOffset": 8064,
      "componentType": 5126,
      "count": 332,
      "max": [
        50.0,
        100.0,
        50.0
      ],
      "min": [
        -50.0,
        -100.0,
        -49.99999237060547
      ],
      "type": "VEC3"
    },
    {
      "bufferView": 2,
      "byteOffset": 12048,
      "componentType": 5126,
      "count": 332,
      "max": [
        1.0,
        1.0,
        1.0
      ],
      "min": [
        -1.0,
        -1.0,
        -1.0
      ],
      "type": "VEC3"
    },
    {
      "bufferView": 1,
      "byteOffset": 2688,
      "componentType": 5126,
      "count": 332,
      "max": [
        0.8003625273704529,
        0.9998943209648132
      ],
      "min": [
        0.00015561282634735107,
        0.00010579824447631836
      ],
      "type": "VEC2"
    },
    {
      "bufferView": 0,
      "byteOffset": 3864,
      "componentType": 5125,
      "count": 960,
      "type": "SCALAR"
    },
    {
      "bufferView": 2,
      "byteOffset": 16032,
      "componentType": 5126,
      "count": 4,
      "max": [
        0.5,
        0.5,
        0.0
      ],
      "min": [
        -0.5,
        -0.5,
        0.0
      ],
      "type": "VEC3"
    },
    {
      "bufferView": 2,
      "byteOffset": 16080,
      "componentType": 5126,
      "count": 4,
      "max": [
        0.0,
        0.0,
        1.0
      ],
      "min": [
        0.0,
        0.0,
        1.0
      ],
      "type": "VEC3"
    },
    {
      "bufferView": 1,
      "byteOffset": 5344,
      "componentType": 5126,
      "count": 4,
      "max": [
        1.0,
        1.0
      ],
      "min": [
        0.0,
        0.0
      ],
      "type": "VEC2"
    },
    {
      "bufferView": 0,
      "byteOffset": 7704,
      "componentType": 5125,
      "count": 6,
      "type": "SCALAR"
    },
    {
      "bufferView": 2,
      "byteOffset": 16128,
      "componentType": 5126,
      "count": 4,
      "max": [
        0.5,
        0.5,
        0.0
      ],
      "min": [
        -0.5,
        -0.5,
        0.0
      ],
      "type": "VEC3"
    },
    {
      "bufferView": 2,
      "byteOffset": 16176,
      "componentType": 5126,
      "count": 4,
      "max": [
        0.0,
        0.0,
        1.0
      ],
      "min": [
        0.0,
        0.0,
        1.0
      ],
      "type": "VEC3"
    },
    {
      "bufferView": 1,
      "byteOffset": 5376,
      "componentType": 5126,
      "count": 4,
      "max": [
        1.0,
        1.0
      ],
      "min": [
        0.0,
        0.0
      ],
      "type": "VEC2"
    },
    {
      "bufferView": 0,
      "byteOffset": 7728,
      "componentType": 5125,
      "count": 6,
      "type": "SCALAR"
    },
    {
      "bufferView": 2,
      "byteOffset": 16224,
      "componentType": 5126,
      "count": 332,
      "max": [
        50.0,
        100.0,
        50.0
      ],
      "min": [
        -50.0,
        -100.0,
        -49.99999237060547
      ],
      "type": "VEC3"
    },
    {
      "bufferView": 2,
      "byteOffset": 20208,
      "componentType": 5126,
      "count": 332,
      "max": [
        1.0,
        1.0,
        1.0
      ],
      "min": [
        -1.0,
        -1.0,
        -1.0
      ],
      "type": "VEC3"
    },
    {
      "bufferView": 1,
      "byteOffset": 5408,
      "componentType": 5126,
      "count": 332,
      "max": [
        0.8003625273704529,
        0.9998943209648132
      ],
      "min": [
        0.00015561282634735107,
        0.00010579824447631836
      ],
      "type": "VEC2"
    },
    {
      "bufferView": 0,
      "byteOffset": 7752,
      "componentType": 5125,
      "count": 960,
      "type": "SCALAR"
    },
    {
      "bufferView": 2,
      "byteOffset": 24192,
      "componentType": 5126,
      "count": 4,
      "max": [
        0.5,
        0.5,
        0.0
      ],
      "min": [
        -0.5,
        -0.5,
        0.0
      ],
      "type": "VEC3"
    },
    {
      "bufferView": 2,
      "byteOffset": 24240,
      "componentType": 5126,
      "count": 4,
      "max": [
        0.0,
        0.0,
        1.0
      ],
      "min": [
        0.0,
        0.0,
        1.0
      ],
      "type": "VEC3"
    },
    {
      "bufferView": 1,
      "byteOffset": 8064,
      "componentType": 5126,
      "count": 4,
      "max": [
        1.0,
        1.0
      ],
      "min": [
        0.0,
        0.0
      ],
      "type": "VEC2"
    },
    {
      "bufferView": 0,
      "byteOffset": 11592,
      "componentType": 5125,
      "count": 6,
      "type": "SCALAR"
    }
  ],
  "asset": {
    "extras": {
      "author": "Afriyieace (https://sketchfab.com/Afriyieace)",
      "license": "SKETCHFAB Standard (https://sketchfab.com/licenses)",
      "source": "https://sketchfab.com/3d-models/football--goal--post-647a4ad80c1642df8cd641714f2ebd8e",
      "title": "Football_ Goal_ Post"
    },
    "generator": "Sketchfab-17.8.0",
    "version": "2.0"
  },
  "bufferViews": [
    {
      "buffer": 0,
      "byteLength": 11616,
      "name": "floatBufferViews",
      "target": 34963
    },
    {
      "buffer": 0,
      "byteLength": 8096,
      "byteOffset": 11616,
      "byteStride": 8,
      "name": "floatBufferViews",
      "target": 34962
    },
    {
      "buffer": 0,
      "byteLength": 24288,
      "byteOffset": 19712,
      "byteStride": 12,
      "name": "floatBufferViews",
      "target": 34962
    }
  ],
  "buffers": [
    {
      "byteLength": 44000,
      "uri": "scene.bin"
    }
  ],
  "images": [
    {
      "uri": "textures/material_baseColor.jpeg"
    },
    {
      "uri": "textures/material_1_baseColor.png"
    }
  ],
  "materials": [
    {
      "doubleSided": true,
      "name": "material",
      "pbrMetallicRoughness": {
        "baseColorTexture": {
          "index": 0
        },
        "metallicFactor": 0.0,
        "roughnessFactor": 0.5
      }
    },
    {
      "alphaMode": "BLEND",
      "doubleSided": true,
      "name": "material_1",
      "pbrMetallicRoughness": {
        "baseColorTexture": {
          "index": 1
        },
        "metallicFactor": 0.0,
        "roughnessFactor": 0.5
      }
    }
  ],
  "meshes": [
    {
      "name": "Object_0",
      "primitives": [
        {
          "attributes": {
            "NORMAL": 1,
            "POSITION": 0,
            "TEXCOORD_0": 2
          },
          "indices": 3,
          "material": 0,
          "mode": 4
        }
      ]
    },
    {
      "name": "Object_1",
      "primitives": [
        {
          "attributes": {
            "NORMAL": 5,
            "POSITION": 4,
            "TEXCOORD_0": 6
          },
          "indices": 7,
          "material": 1,
          "mode": 4
        }
      ]
    },
    {
      "name": "Object_2",
      "primitives": [
        {
          "attributes": {
            "NORMAL": 9,
            "POSITION": 8,
            "TEXCOORD_0": 10
          },
          "indices": 11,
          "material": 0,
          "mode": 4
        }
      ]
    },
    {
      "name": "Object_3",
      "primitives": [
        {
          "attributes": {
            "NORMAL": 13,
            "POSITION": 12,
            "TEXCOORD_0": 14
          },
          "indices": 15,
          "material": 1,
          "mode": 4
        }
      ]
    },
    {
      "name": "Object_4",
      "primitives": [
        {
          "attributes": {
            "NORMAL": 17,
            "POSITION": 16,
            "TEXCOORD_0": 18
          },
          "indices": 19,
          "material": 1,
          "mode": 4
        }
      ]
    },
    {
      "name": "Object_5",
      "primitives": [
        {
          "attributes": {
            "NORMAL": 21,
            "POSITION": 20,
            "TEXCOORD_0": 22
          },
          "indices": 23,
          "material": 0,
          "mode": 4
        }
      ]
    },
    {
      "name": "Object_6",
      "primitives": [
        {
          "attributes": {
            "NORMAL": 25,
            "POSITION": 24,
            "TEXCOORD_0": 26
          },
          "indices": 27,
          "material": 1,
          "mode": 4
        }
      ]
    }
  ],
  "nodes": [
    {
      "children": [
        1
      ],
      "matrix": [
        1.0,
        0.0,
        0.0,
        0.0,
        0.0,
        2.220446049250313e-16,
        -1.0,
        0.0,
        0.0,
        1.0,
        2.220446049250313e-16,
        0.0,
        0.0,
        0.0,
        0.0,
        1.0
      ],
      "name": "Sketchfab_model"
    },
    {
      "children": [
        2
      ],
      "matrix": [
        0.009999999776482582,
        0.0,
        0.0,
        0.0,
        0.0,
        2.2204459996194763e-18,
        0.009999999776482582,
        0.0,
        0.0,
        -0.009999999776482582,
        2.2204459996194763e-18,
        0.0,
        0.0,
        0.0,
        0.0,
        1.0
      ],
      "name": "USDRoot"
    },
    {
      "children": [
        3
      ],
      "name": "scene"
    },
    {
      "children": [
        4
      ],
      "matrix": [
        100.0,
        0.0,
        0.0,
        0.0,
        0.0,
        100.0,
        0.0,
        0.0,
        0.0,
        0.0,
        100.0,
        0.0,
        -1.9255892038345337,
        0.0,
        -25.97637176513672,
        1.0
      ],
      "name": "Meshes"
    },
    {
      "children": [
        5
      ],
      "matrix": [
        1.0,
        0.0,
        0.0,
        0.0,
        0.0,
        2.220446049250313e-16,
        -1.0,
        0.0,
        0.0,
        1.0,
        2.220446049250313e-16,
        0.0,
        0.0,
        0.0,
        0.0,
        1.0
      ],
      "name": "Sketchfab_model"
    },
    {
      "children": [
        6
      ],
      "name": "root"
    },
    {
      "children": [
        7
      ],
      "matrix": [
        1.0,
        0.0,
        0.0,
        0.0,
        0.0,
        2.220446049250313e-16,
        1.0,
        0.0,
        0.0,
        -1.0,
        2.220446049250313e-16,
        0.0,
        0.0,
        0.0,
        0.0,
        1.0
      ],
      "name": "GLTF_SceneRootNode"
    },
    {
      "children": [
        8,
        11,
        14,
        17,
        20,
        23,
        26
      ],
      "name": "root_7"
    },
    {
      "children": [
        9
      ],
      "matrix": [
        0.000402209087042138,
        8.30745125468546e-11,
        2.3973503737728663e-11,
        0.0,
        5.605221287119377e-10,
        -0.0027137943543493748,
        1.5330237079780318e-09,
        0.0,
        2.397354363636861e-11,
        -2.2720803016795799e-10,
        -0.00040220897062681615,
        0.0,
        0.4645087420940399,
        -0.01303453091531992,
        0.4381755590438843,
        1.0
      ],
      "name": "_0"
    },
    {
      "children": [
        10
      ],
      "name": "Object_5"
    },
    {
      "mesh": 0,
      "name": "Object_0"
    },
    {
      "children": [
        12
      ],
      "matrix": [
        5.317374416335952e-07,
        -0.557567298412323,
        4.6527063091161835e-07,
        0.0,
        3.070470313559781e-07,
        -3.070467471388838e-07,
        -0.36795657873153687,
        0.0,
        0.0009999999310821295,
        9.536745837479543e-10,
        8.344645530122818e-10,
        0.0,
        0.4640410244464874,
        -0.006217132788151503,
        0.24521981179714203,
        1.0
      ],
      "name": "_1"
    },
    {
      "children": [
        13
      ],
      "name": "Object_7"
    },
    {
      "mesh": 1,
      "name": "Object_1"
    },
    {
      "children": [
        15
      ],
      "matrix": [
        1.017109174661357e-10,
        0.00040220865048468113,
        -3.3562902457262567e-10,
        0.0,
        0.00464293546974659,
        -1.174111252666421e-09,
        -1.3837014867235098e-09,
        0.0,
        -1.198676574665214e-10,
        -3.356294409062599e-10,
        -0.00040220917435362935,
        0.0,
        0.019473817199468613,
        0.25916045904159546,
        0.43817538022994995,
        1.0
      ],
      "name": "_2"
    },
    {
      "children": [
        16
      ],
      "name": "Object_9"
    },
    {
      "mesh": 2,
      "name": "Object_2"
    },
    {
      "children": [
        18
      ],
      "matrix": [
        0.8976812958717346,
        5.1644068577161306e-08,
        1.0701192110218471e-07,
        0.0,
        4.3863817467126864e-08,
        -3.7219678006295e-07,
        -0.3679563105106354,
        0.0,
        -5.7530362418400927e-11,
        0.0009999994654208422,
        -1.0115238646690727e-09,
        0.0,
        0.01908908225595951,
        0.26655033230781555,
        0.24521984159946442,
        1.0
      ],
      "name": "_3"
    },
    {
      "children": [
        19
      ],
      "name": "Object_11"
    },
    {
      "mesh": 3,
      "name": "Object_3"
    },
    {
      "children": [
        21
      ],
      "matrix": [
        0.8976830244064331,
        -7.509469810429437e-07,
        -8.025914866038875e-08,
        0.0,
        -4.590713729157869e-07,
        -0.5487745404243469,
        1.9421281649556477e-07,
        0.0,
        -8.940729406825554e-11,
        -3.539026571797166e-10,
        -0.0009999999310821295,
        0.0,
        0.019088897854089737,
        -0.009832664392888546,
        0.06300418078899384,
        1.0
      ],
      "name": "_4"
    },
    {
      "children": [
        22
      ],
      "name": "Object_13"
    },
    {
      "mesh": 4,
      "name": "Object_4"
    },
    {
      "children": [
        24
      ],
      "matrix": [
        0.000402209087042138,
        8.30745125468546e-11,
        2.3973503737728663e-11,
        0.0,
        5.605221287119377e-10,
        -0.0027137943543493748,
        1.5330237079780318e-09,
        0.0,
        2.397354363636861e-11,
        -2.2720803016795799e-10,
        -0.00040220897062681615,
        0.0,
        -0.42599695920944214,
        -0.014975233934819698,
        0.4381754398345947,
        1.0
      ],
      "name": "_5"
    },
    {
      "children": [
        25
      ],
      "name": "Object_15"
    },
    {
      "mesh": 5,
      "name": "Object_5"
    },
    {
      "children": [
        27
      ],
      "matrix": [
        -3.6556954796651553e-07,
        -0.557567298412323,
        2.3263527282324503e-07,
        0.0,
        -1.5352350146713434e-07,
        -1.5352340199115133e-07,
        -0.36795660853385925,
        0.0,
        -0.001000000280328095,
        6.556513665323394e-10,
        4.1723247079517023e-10,
        0.0,
        -0.42862898111343384,
        -0.006217130925506353,
        0.24521973729133606,
        1.0
      ],
      "name": "_6"
    },
    {
      "children": [
        28
      ],
      "name": "Object_17"
    },
    {
      "mesh": 6,
      "name": "Object_6"
    }
  ],
  "samplers": [
    {
      "magFilter": 9729,
      "minFilter": 9987,
      "wrapS": 10497,
      "wrapT": 10497
    }
  ],
  "scene": 0,
  "scenes": [
    {
      "name": "Sketchfab_Scene",
      "nodes": [
        0
      ]
    }
  ],
  "textures": [
    {
      "sampler": 0,
      "source": 0
    },
    {
      "sampler": 0,
      "source": 1
    }
  ]
}
